<mxfile host="app.diagrams.net" modified="2024-06-18T05:49:06.320Z" agent="Mozilla/5.0 (Windows NT 10.0; Win64; x64) AppleWebKit/537.36 (KHTML, like Gecko) Chrome/124.0.0.0 Safari/537.36 Edg/124.0.0.0" version="24.5.5" etag="SRTcvOinEeF8giPPH5RL" type="github">
  <diagram name="Page-1" id="RcDGPpgzKiDbB9bk85vh">
    <mxGraphModel>
      <root>
        <mxCell id="0" />
        <mxCell id="1" parent="0" />
      </root>
    </mxGraphModel>
  </diagram>
</mxfile>
